# Blender v2.76 (sub 0) OBJ File: 'miner.blend'
# www.blender.org
o Cube.001_Cube.003
v 0.625000 -0.125000 2.125000
v 0.625000 -0.125000 3.125000
v -0.375000 -0.125000 2.125000
v -0.375000 -0.125000 3.125000
v 0.625000 0.125000 2.125000
v 0.625000 0.125000 3.125000
v -0.375000 0.125000 2.125000
v -0.375000 0.125000 3.125000
v 0.875000 -0.125000 2.125000
v 0.875000 -0.125000 2.375000
v -0.375000 -0.125000 2.125000
v -0.375000 -0.125000 2.375000
v 0.875000 0.125000 2.125000
v 0.875000 0.125000 2.375000
v -0.375000 0.125000 2.125000
v -0.375000 0.125000 2.375000
v 0.625000 -0.125000 1.875000
v 0.625000 -0.125000 2.125000
v -0.375000 -0.125000 1.875000
v -0.375000 -0.125000 2.125000
v 0.625000 0.125000 1.875000
v 0.625000 0.125000 2.125000
v -0.375000 0.125000 1.875000
v -0.375000 0.125000 2.125000
v 0.375000 -0.125000 1.625000
v 0.375000 -0.125000 1.875000
v -0.125000 -0.125000 1.625000
v -0.125000 -0.125000 1.875000
v 0.375000 0.125000 1.625000
v 0.375000 0.125000 1.875000
v -0.125000 0.125000 1.625000
v -0.125000 0.125000 1.875000
v 0.625000 -0.125000 1.375000
v 0.625000 -0.125000 1.625000
v -0.375000 -0.125000 1.375000
v -0.375000 -0.125000 1.625000
v 0.625000 0.125000 1.375000
v 0.625000 0.125000 1.625000
v -0.375000 0.125000 1.375000
v -0.375000 0.125000 1.625000
v 0.625000 -0.125000 0.125000
v 0.625000 -0.125000 0.375000
v -0.375000 -0.125000 0.125000
v -0.375000 -0.125000 0.375000
v 0.625000 0.125000 0.125000
v 0.625000 0.125000 0.375000
v -0.375000 0.125000 0.125000
v -0.375000 0.125000 0.375000
v 0.875000 -0.125000 0.375000
v 0.875000 -0.125000 1.375000
v -0.625000 -0.125000 0.375000
v -0.625000 -0.125000 1.375000
v 0.875000 0.125000 0.375000
v 0.875000 0.125000 1.375000
v -0.625000 0.125000 0.375000
v -0.625000 0.125000 1.375000
v 0.125000 -0.125000 -0.375000
v 0.125000 -0.125000 -0.125000
v -0.125000 -0.125000 -0.375000
v -0.125000 -0.125000 -0.125000
v 0.125000 0.125000 -0.375000
v 0.125000 0.125000 -0.125000
v -0.125000 0.125000 -0.375000
v -0.125000 0.125000 -0.125000
v 0.375000 -0.125000 -0.375000
v 0.375000 -0.125000 -0.125000
v 0.125000 -0.125000 -0.375000
v 0.125000 -0.125000 -0.125000
v 0.375000 0.125000 -0.375000
v 0.375000 0.125000 -0.125000
v 0.125000 0.125000 -0.375000
v 0.125000 0.125000 -0.125000
v 0.375000 -0.125000 -0.125000
v 0.375000 -0.125000 0.125000
v -0.125000 -0.125000 -0.125000
v -0.125000 -0.125000 0.125000
v 0.375000 0.125000 -0.125000
v 0.375000 0.125000 0.125000
v -0.125000 0.125000 -0.125000
v -0.125000 0.125000 0.125000
v 0.625000 -0.125000 -0.625000
v 0.625000 -0.125000 -0.375000
v 0.375000 -0.125000 -0.625000
v 0.375000 -0.125000 -0.375000
v 0.625000 0.125000 -0.625000
v 0.625000 0.125000 -0.375000
v 0.375000 0.125000 -0.625000
v 0.375000 0.125000 -0.375000
v 0.125000 -0.125000 -0.625000
v 0.125000 -0.125000 -0.375000
v -0.125000 -0.125000 -0.625000
v -0.125000 -0.125000 -0.375000
v 0.125000 0.125000 -0.625000
v 0.125000 0.125000 -0.375000
v -0.125000 0.125000 -0.625000
v -0.125000 0.125000 -0.375000
v 0.375000 -0.125000 -0.625000
v 0.375000 -0.125000 -0.375000
v 0.125000 -0.125000 -0.625000
v 0.125000 -0.125000 -0.375000
v 0.375000 0.125000 -0.625000
v 0.375000 0.125000 -0.375000
v 0.125000 0.125000 -0.625000
v 0.125000 0.125000 -0.375000
v -0.375000 -0.125000 2.625000
v -0.375000 -0.125000 2.875000
v -0.625000 -0.125000 2.625000
v -0.625000 -0.125000 2.875000
v -0.375000 0.125000 2.625000
v -0.375000 0.125000 2.875000
v -0.625000 0.125000 2.625000
v -0.625000 0.125000 2.875000
v 0.875000 -0.125000 2.875000
v 0.875000 -0.125000 3.375000
v 0.375000 -0.125000 2.875000
v 0.375000 -0.125000 3.375000
v 0.875000 0.125000 2.875000
v 0.875000 0.125000 3.375000
v 0.375000 0.125000 2.875000
v 0.375000 0.125000 3.375000
vt 0.000000 0.300000
vt 0.200000 0.300000
vt 0.200000 0.500000
vt 0.300000 0.500000
vt 0.300000 0.700000
vt 0.200000 0.700000
vt 0.400000 0.300000
vt 0.400000 0.500000
vt 0.700000 0.200000
vt 0.700000 0.400000
vt 0.600000 0.400000
vt 0.400000 0.550000
vt 0.500000 0.550000
vt 0.500000 0.750000
vt 0.800000 0.600000
vt 0.700000 0.600000
vt 0.800000 0.250000
vt 0.850000 0.250000
vt 0.850000 0.500000
vt 0.950000 0.300000
vt 1.000000 0.300000
vt 1.000000 0.400000
vt 0.800000 0.000000
vt 0.850000 0.000000
vt 0.950000 0.900000
vt 0.900000 0.900000
vt 0.900000 0.800000
vt 0.600000 0.550000
vt 0.500000 0.300000
vt 0.750000 0.600000
vt 0.750000 0.800000
vt 0.500000 0.850000
vt 0.550000 0.850000
vt 0.550000 0.950000
vt 0.650000 0.600000
vt 0.700000 0.800000
vt 0.950000 0.800000
vt 0.900000 0.700000
vt 0.800000 0.400000
vt 0.600000 0.800000
vt 0.650000 0.800000
vt 0.650000 0.900000
vt 0.750000 0.900000
vt 0.700000 0.900000
vt 0.400000 0.850000
vt 0.450000 0.850000
vt 0.450000 0.950000
vt 0.950000 0.700000
vt 0.900000 0.600000
vt 0.400000 0.750000
vt 0.600000 0.750000
vt 0.600000 0.850000
vt 0.850000 0.600000
vt 0.850000 0.800000
vt 0.900000 0.400000
vt 0.850000 0.400000
vt 0.850000 0.300000
vt 0.800000 0.800000
vt 0.850000 0.900000
vt 0.800000 0.900000
vt 0.000000 0.500000
vt 0.100000 0.500000
vt 0.100000 0.700000
vt 0.900000 0.000000
vt 0.900000 0.200000
vt 0.500000 0.950000
vt 0.600000 0.600000
vt 0.950000 0.600000
vt 0.900000 0.500000
vt 0.800000 0.200000
vt 0.700000 0.000000
vt 0.000000 0.000000
vt 0.200000 0.000000
vt 0.400000 0.700000
vt 0.600000 0.200000
vt 0.400000 0.000000
vt 0.500000 0.000000
vt 0.600000 0.300000
vt 0.600000 0.950000
vt 0.600000 1.000000
vt 0.750000 0.950000
vt 0.900000 0.300000
vt 0.850000 0.200000
vt 0.350000 1.000000
vt 0.350000 0.900000
vt 0.400000 0.900000
vt 0.650000 0.950000
vt 0.650000 1.000000
vt 0.550000 1.000000
vt 0.950000 0.500000
vt 0.850000 0.700000
vt 0.950000 0.200000
vt 1.000000 0.200000
vt 0.100000 0.900000
vt 0.150000 0.900000
vt 0.150000 1.000000
vt 0.800000 0.500000
vt 0.200000 0.900000
vt 0.200000 0.800000
vt 0.300000 0.800000
vt 0.100000 0.800000
vt 0.000000 0.900000
vt 0.900000 0.950000
vt 0.950000 0.400000
vt 1.000000 0.600000
vt 0.100000 1.000000
vt 0.050000 1.000000
vt 0.700000 0.950000
vt 0.250000 1.000000
vt 0.200000 1.000000
vt 0.800000 0.950000
vt 0.950000 0.100000
vt 0.950000 0.000000
vt 1.000000 0.000000
vt 0.900000 0.100000
vt 0.850000 0.950000
vt 0.300000 1.000000
vt 0.300000 0.900000
vt 0.450000 1.000000
vt 0.400000 1.000000
vt 0.500000 1.000000
vt 0.600000 0.900000
vt 0.050000 0.900000
vt 0.000000 1.000000
vt 0.000000 0.700000
vt 0.400000 0.800000
vt 0.400000 0.950000
vt 0.600000 0.000000
vt 0.000000 0.800000
vt 0.950000 0.950000
vt 1.000000 0.500000
vt 0.250000 0.900000
vt 1.000000 0.100000
vn 0.000000 -1.000000 0.000000
vn -1.000000 0.000000 0.000000
vn 0.000000 1.000000 0.000000
vn 1.000000 0.000000 0.000000
vn 0.000000 0.000000 -1.000000
vn 0.000000 0.000000 1.000000
s off
f 4/1/1 3/2/1 1/3/1
f 8/4/2 7/5/2 3/6/2
f 6/7/3 5/8/3 7/3/3
f 2/9/4 1/10/4 5/11/4
f 3/12/5 7/13/5 5/14/5
f 8/15/6 4/16/6 2/10/6
f 12/17/1 11/18/1 9/19/1
f 16/20/2 15/21/2 11/22/2
f 14/23/3 13/24/3 15/18/3
f 10/25/4 9/26/4 13/27/4
f 11/28/5 15/13/5 13/29/5
f 16/13/6 12/12/6 10/7/6
f 20/16/1 19/30/1 17/31/1
f 24/32/2 23/33/2 19/34/2
f 22/35/3 21/16/3 23/36/3
f 18/37/4 17/27/4 21/38/4
f 19/11/5 23/10/5 21/16/5
f 24/39/6 20/10/6 18/9/6
f 28/40/1 27/41/1 25/42/1
f 32/43/2 31/44/2 27/36/2
f 30/45/3 29/46/3 31/47/3
f 26/48/4 25/38/4 29/49/4
f 27/50/5 31/14/5 29/32/5
f 32/51/6 28/52/6 26/32/6
f 36/15/1 35/53/1 33/54/1
f 40/55/2 39/56/2 35/57/2
f 38/30/3 37/15/3 39/58/3
f 34/59/4 33/60/4 37/58/4
f 35/61/5 39/62/5 37/63/5
f 40/51/6 36/14/6 34/13/6
f 44/24/1 43/64/1 41/65/1
f 48/46/2 47/32/2 43/66/2
f 46/67/3 45/35/3 47/41/3
f 42/68/4 41/49/4 45/69/4
f 43/62/5 47/3/5 45/6/5
f 48/70/6 44/9/6 42/71/6
f 52/72/1 51/73/1 49/2/1
f 56/8/2 55/74/2 51/5/2
f 54/7/3 53/2/3 55/73/3
f 50/71/4 49/9/4 53/75/4
f 51/76/5 55/77/5 53/29/5
f 56/78/6 52/29/6 50/77/6
f 60/34/1 59/79/1 57/80/1
f 64/69/2 63/19/2 59/56/2
f 62/44/3 61/43/3 63/81/3
f 58/82/4 57/57/4 61/83/4
f 59/84/5 63/85/5 61/86/5
f 64/59/6 60/54/6 58/27/6
f 68/79/1 67/87/1 65/88/1
f 72/49/2 71/53/2 67/19/2
f 70/66/3 69/34/3 71/89/3
f 66/90/4 65/69/4 69/55/4
f 67/49/5 71/38/5 69/91/5
f 72/20/6 68/92/6 66/93/6
f 76/94/1 75/95/1 73/96/1
f 80/65/2 79/92/2 75/20/2
f 78/97/3 77/19/3 79/53/3
f 74/79/4 73/34/4 77/33/4
f 75/98/5 79/99/5 77/100/5
f 80/101/6 76/94/6 74/102/6
f 84/59/1 83/26/1 81/103/1
f 88/104/2 87/55/2 83/82/2
f 86/103/3 85/26/3 87/25/3
f 82/105/4 81/68/4 85/90/4
f 83/54/5 87/91/5 85/38/5
f 88/94/6 84/106/6 82/107/6
f 92/42/1 91/44/1 89/108/1
f 96/109/2 95/110/2 91/98/2
f 94/43/3 93/60/3 95/111/3
f 90/110/4 89/96/4 93/95/4
f 91/112/5 95/113/5 93/114/5
f 96/65/6 92/115/6 90/112/6
f 100/60/1 99/59/1 97/116/1
f 104/84/2 103/117/2 99/118/2
f 102/47/3 101/119/3 103/120/3
f 98/93/4 97/92/4 101/112/4
f 99/115/5 103/64/5 101/113/5
f 104/90/6 100/104/6 98/22/6
f 108/47/1 107/66/1 105/121/1
f 112/44/2 111/42/2 107/41/2
f 110/122/3 109/42/3 111/87/3
f 106/60/4 105/43/4 109/31/4
f 107/123/5 111/107/5 109/124/5
f 112/118/6 108/117/6 106/109/6
f 116/6/1 115/5/1 113/100/1
f 120/63/2 119/6/2 115/99/2
f 118/125/3 117/63/3 119/101/3
f 114/74/4 113/126/4 117/100/4
f 115/86/5 119/118/5 117/100/5
f 120/99/6 116/98/6 114/94/6
f 2/61/1 4/1/1 1/3/1
f 4/3/2 8/4/2 3/6/2
f 8/2/3 6/7/3 7/3/3
f 6/75/4 2/9/4 5/11/4
f 1/50/5 3/12/5 5/14/5
f 6/39/6 8/15/6 2/10/6
f 10/97/1 12/17/1 9/19/1
f 12/104/2 16/20/2 11/22/2
f 16/17/3 14/23/3 15/18/3
f 14/37/4 10/25/4 13/27/4
f 9/78/5 11/28/5 13/29/5
f 14/29/6 16/13/6 10/7/6
f 18/36/1 20/16/1 17/31/1
f 20/66/2 24/32/2 19/34/2
f 24/41/3 22/35/3 23/36/3
f 22/48/4 18/37/4 21/38/4
f 17/67/5 19/11/5 21/16/5
f 22/70/6 24/39/6 18/9/6
f 26/122/1 28/40/1 25/42/1
f 28/31/2 32/43/2 27/36/2
f 32/127/3 30/45/3 31/47/3
f 30/68/4 26/48/4 29/49/4
f 25/45/5 27/50/5 29/32/5
f 30/14/6 32/51/6 26/32/6
f 34/58/1 36/15/1 33/54/1
f 36/82/2 40/55/2 35/57/2
f 40/31/3 38/30/3 39/58/3
f 38/54/4 34/59/4 37/58/4
f 33/125/5 35/61/5 37/63/5
f 38/28/6 40/51/6 34/13/6
f 42/83/1 44/24/1 41/65/1
f 44/47/2 48/46/2 43/66/2
f 48/40/3 46/67/3 47/41/3
f 46/90/4 42/68/4 45/69/4
f 41/63/5 43/62/5 45/6/5
f 46/23/6 48/70/6 42/71/6
f 50/1/1 52/72/1 49/2/1
f 52/4/2 56/8/2 51/5/2
f 56/76/3 54/7/3 55/73/3
f 54/128/4 50/71/4 53/75/4
f 49/7/5 51/76/5 53/29/5
f 54/128/6 56/78/6 50/77/6
f 58/89/1 60/34/1 57/80/1
f 60/55/2 64/69/2 59/56/2
f 64/108/3 62/44/3 63/81/3
f 62/65/4 58/82/4 61/83/4
f 57/120/5 59/84/5 61/86/5
f 62/26/6 64/59/6 58/27/6
f 66/80/1 68/79/1 65/88/1
f 68/69/2 72/49/2 67/19/2
f 72/121/3 70/66/3 71/89/3
f 70/104/4 66/90/4 69/55/4
f 65/53/5 67/49/5 69/91/5
f 70/21/6 72/20/6 66/93/6
f 74/106/1 76/94/1 73/96/1
f 76/82/2 80/65/2 75/20/2
f 80/15/3 78/97/3 79/53/3
f 78/52/4 74/79/4 77/33/4
f 73/118/5 75/98/5 77/100/5
f 78/129/6 80/101/6 74/102/6
f 82/116/1 84/59/1 81/103/1
f 84/20/2 88/104/2 83/82/2
f 88/130/3 86/103/3 87/25/3
f 86/131/4 82/105/4 85/90/4
f 81/27/5 83/54/5 85/38/5
f 86/123/6 88/94/6 82/107/6
f 90/87/1 92/42/1 89/108/1
f 92/132/2 96/109/2 91/98/2
f 96/81/3 94/43/3 95/111/3
f 94/98/4 90/110/4 93/95/4
f 89/133/5 91/112/5 93/114/5
f 94/92/6 96/65/6 90/112/6
f 98/111/1 100/60/1 97/116/1
f 100/85/2 104/84/2 99/118/2
f 104/127/3 102/47/3 103/120/3
f 102/133/4 98/93/4 101/112/4
f 97/112/5 99/115/5 101/113/5
f 102/131/6 104/90/6 98/22/6
f 106/119/1 108/47/1 105/121/1
f 108/36/2 112/44/2 107/41/2
f 112/79/3 110/122/3 111/87/3
f 110/58/4 106/60/4 109/31/4
f 105/102/5 107/123/5 109/124/5
f 110/132/6 112/118/6 106/109/6
f 114/99/1 116/6/1 113/100/1
f 116/101/2 120/63/2 115/99/2
f 120/129/3 118/125/3 119/101/3
f 118/5/4 114/74/4 117/100/4
f 113/126/5 115/86/5 117/100/5
f 118/101/6 120/99/6 114/94/6
